<?xml version="1.0" encoding="UTF-8"?>
<svg xmlns="http://www.w3.org/2000/svg" viewBox="0 0 1201 631">
  <defs>
    <style>
      .cls-1 {
        fill: var(--ink);
      }

      .cls-2 {
        fill: var(--background);
      }

      .cls-3 {
        fill: var(--accent);
      }
    </style>
  </defs>
  <g id="background">
    <rect class="cls-3" x=".5" y=".5" width="1200" height="630" rx="220" ry="220"/>
  </g>
  <g id="logo">
    <path class="cls-2" d="M1173.74,281.38c0,55.45-37.38,91.66-95.58,93.03v65.02h-100.3v-21.24c-22.12,16.39-49.74,25.31-79.41,25.31-35.25,0-67.66-12.56-91.31-35.35-3.94-3.77-7.55-7.84-10.89-12.09-3.36,4.25-6.97,8.31-10.89,12.09-23.65,22.79-56.09,35.35-91.33,35.35-27.86,0-53.94-7.88-75.34-22.43v18.36H184.27v-8.37c-12.98,5.43-28.23,8.37-45.29,8.37H28.59v-247.87h107.69c18.49,0,34.7,3.61,47.99,10.27v-10.27h433.07v19.25c21.64-15.13,48.25-23.32,76.69-23.32,35.25,0,67.68,12.54,91.33,35.36,3.92,3.77,7.53,7.84,10.89,12.09,3.34-4.25,6.95-8.31,10.89-12.09,23.65-22.81,56.07-35.36,91.31-35.36,29.67,0,57.29,8.92,79.41,25.31v-21.24h96.86c38.09,0,60.72,13.89,72.99,25.55,17.05,16.19,26.04,38.4,26.04,64.27Z"/>
    <path class="cls-1" d="M898.45,445.5c-35.75,0-68.67-12.75-92.7-35.91-3.24-3.1-6.43-6.57-9.5-10.33-3.09,3.77-6.27,7.23-9.5,10.34-24.03,23.16-56.96,35.91-92.72,35.91-26.78,0-52.05-7.15-73.34-20.72v14.65c0,1.1-.9,2-2,2H184.27c-1.1,0-2-.9-2-2v-5.41c-12.85,4.92-27.39,7.41-43.29,7.41H28.59c-1.1,0-2-.9-2-2v-247.87c0-1.1.9-2,2-2h107.69c17.28,0,32.73,3.06,45.99,9.09v-7.09c0-1.1.9-2,2-2h433.07c1.1,0,2,.9,2,2v15.49c21.54-14.11,47.27-21.55,74.69-21.55,35.78,0,68.71,12.75,92.72,35.92,3.22,3.1,6.41,6.57,9.49,10.33,3.07-3.76,6.26-7.23,9.51-10.34,24.01-23.16,56.93-35.91,92.7-35.91,28.65,0,55.32,8.08,77.41,23.41v-17.35c0-1.1.9-2,2-2h96.86c38.75,0,61.83,14.19,74.37,26.1,17.44,16.56,26.66,39.29,26.66,65.72,0,55.71-37.45,92.81-95.58,94.97v63.08c0,1.1-.9,2-2,2h-100.3c-1.1,0-2-.9-2-2v-17.35c-22.09,15.33-48.76,23.41-77.41,23.41ZM796.25,394.06h0c.61,0,1.19.28,1.57.76,3.43,4.37,7.03,8.37,10.7,11.88,23.29,22.44,55.22,34.8,89.93,34.8,29.18,0,56.22-8.62,78.22-24.92.61-.45,1.42-.52,2.09-.18.67.34,1.1,1.03,1.1,1.79v19.24h96.3v-63.02c0-1.09.87-1.97,1.95-2,56.88-1.34,93.63-37.07,93.63-91.03,0-25.31-8.79-47.03-25.42-62.82-12.01-11.4-34.18-25-71.61-25h-94.86v19.24c0,.76-.43,1.45-1.1,1.79-.67.34-1.48.27-2.09-.18-21.99-16.3-49.04-24.92-78.22-24.92-34.73,0-66.66,12.36-89.92,34.79-3.67,3.52-7.27,7.51-10.7,11.88-.38.48-.96.76-1.57.76h0c-.61,0-1.19-.28-1.57-.76-3.46-4.38-7.06-8.38-10.7-11.89-23.26-22.44-55.21-34.8-89.95-34.8-27.94,0-54.06,7.94-75.54,22.96-.61.43-1.41.48-2.07.13-.66-.34-1.08-1.03-1.08-1.77v-17.25H186.27v8.27c0,.69-.36,1.34-.95,1.7-.59.37-1.33.4-1.95.09-13.32-6.67-29.17-10.05-47.1-10.05H30.59v243.87h108.39c16.52,0,31.5-2.76,44.52-8.21.62-.26,1.32-.19,1.88.18.56.37.89,1,.89,1.67v6.37h430.42v-16.36c0-.74.41-1.42,1.06-1.77.65-.35,1.45-.3,2.06.11,21.25,14.45,46.92,22.08,74.22,22.08,34.72,0,66.66-12.36,89.94-34.79,3.64-3.51,7.24-7.5,10.7-11.89.38-.48.96-.76,1.57-.76Z"/>
    <g>
      <path class="cls-1" d="M203.43,356.93c0,38.99-30.32,53.34-64.44,53.34H57.76v-189.53h78.52c33.3,0,58.48,14.08,58.48,47.11,0,21.93-10.29,35.47-30.05,41.97v.54c21.39,3.52,38.72,15.16,38.72,46.57ZM99.73,258.91v37.09h31.41c12.73,0,21.39-7.04,21.39-18.95s-8.93-18.14-21.12-18.14h-31.68ZM159.84,351.51c0-13.81-10.29-20.58-27.35-20.58h-32.76v41.16h33.03c15.97,0,27.08-6.77,27.08-20.58Z"/>
      <path class="cls-1" d="M255.41,370.73h75.54v39.53h-117.51v-189.53h41.97v150Z"/>
      <path class="cls-1" d="M459.56,371.01v39.26h-118.59v-189.53h117.24v39.26h-75.27v29.78h67.69v38.18h-67.69v43.05h76.62Z"/>
      <path class="cls-1" d="M589.52,371.01v39.26h-118.59v-189.53h117.24v39.26h-75.27v29.78h67.69v38.18h-67.69v43.05h76.62Z"/>
      <path class="cls-1" d="M793.94,315.5c0,59.3-43.59,98.83-99.91,98.83s-99.91-39.53-99.91-98.83,43.59-98.83,99.91-98.83,99.91,39.53,99.91,98.83ZM640.42,315.5c0,34.12,23.28,55.51,53.61,55.51s53.61-21.39,53.61-55.51-23.28-55.51-53.61-55.51-53.61,21.39-53.61,55.51Z"/>
      <path class="cls-1" d="M998.36,315.5c0,59.3-43.59,98.83-99.91,98.83s-99.91-39.53-99.91-98.83,43.59-98.83,99.91-98.83,99.91,39.53,99.91,98.83ZM844.84,315.5c0,34.12,23.28,55.51,53.61,55.51s53.61-21.39,53.61-55.51-23.28-55.51-53.61-55.51-53.61,21.39-53.61,55.51Z"/>
      <path class="cls-1" d="M1144.57,281.38c0,37.09-21.93,63.9-69.86,63.9h-25.72v64.98h-41.97v-189.53h67.69c47.92,0,69.86,26.53,69.86,60.65ZM1099.9,282.2c0-16.52-11.37-23.29-28.7-23.29h-22.2v48.47h22.2c17.33,0,28.7-8.39,28.7-25.18Z"/>
    </g>
    <rect class="cls-1" x="398.5" y="456.02" width="404" height="35" rx="17.5" ry="17.5"/>
    <g>
      <path class="cls-2" d="M426.38,468.98v3.28h5.98v2.52h-5.98v5.84h-3.38v-14.2h9.72v2.56h-6.34Z"/>
      <path class="cls-2" d="M434.74,480.62v-14.2h3.38v14.2h-3.38Z"/>
      <path class="cls-2" d="M441.08,466.42h3.74l4.56,8.1c.32.6.68,1.32.86,1.84h.04c0-.56-.02-1.14-.02-1.82v-8.12h3.1v14.2h-3.6l-4.72-8.18c-.34-.64-.66-1.22-.84-1.74h-.04c0,.58.02,1.18.02,1.88v8.04h-3.1v-14.2Z"/>
      <path class="cls-2" d="M466.18,478.12v2.5h-9.86v-14.2h9.72v2.5h-6.34v3.2h6v2.48h-6v3.52h6.48Z"/>
      <path class="cls-2" d="M468.64,466.42h3.38v11.46h5.76v2.74h-9.14v-14.2Z"/>
      <path class="cls-2" d="M480.66,475.48l-4.72-9.06h3.56l2.5,5.24c.16.36.28.72.34,1.04h.04c.06-.32.18-.68.34-1.04l2.48-5.24h3.58l-4.72,9.06v5.14h-3.4v-5.14Z"/>
      <path class="cls-2" d="M494.24,473.54c0-4.48,2.64-7.46,6.96-7.46,3.62,0,5.9,2,6.28,5.1l-3.42.6c-.2-1.88-1.24-2.98-2.94-2.98-2.16,0-3.42,1.82-3.42,4.72s1.28,4.7,3.52,4.7c1.58,0,2.64-1.08,2.92-2.92l3.42.74c-.68,3-2.88,4.92-6.4,4.92-4.5,0-6.92-2.94-6.92-7.42Z"/>
      <path class="cls-2" d="M514.9,475.18h-2.04v5.44h-3.38v-14.2h6.24c3.6,0,5.2,1.76,5.2,4.36,0,1.78-.94,3.28-2.78,3.9l3.14,5.94h-3.66l-2.72-5.44ZM512.86,472.86h2.18c1.64,0,2.36-.8,2.36-2.08s-.7-1.98-2.36-1.98h-2.18v4.06Z"/>
      <path class="cls-2" d="M532.04,477.3h-5.24l-1.08,3.32h-3.38l5.16-14.2h3.86l5.16,14.2h-3.4l-1.08-3.32ZM531.26,474.92l-1.3-3.96c-.2-.62-.38-1.16-.52-2h-.04c-.14.84-.32,1.38-.52,2l-1.3,3.96h3.68Z"/>
      <path class="cls-2" d="M541.64,468.98v3.28h5.98v2.52h-5.98v5.84h-3.38v-14.2h9.72v2.56h-6.34Z"/>
      <path class="cls-2" d="M560.94,469.1h-4.14v11.52h-3.36v-11.52h-4.12v-2.68h11.62v2.68Z"/>
      <path class="cls-2" d="M572.4,478.12v2.5h-9.86v-14.2h9.72v2.5h-6.34v3.2h6v2.48h-6v3.52h6.48Z"/>
      <path class="cls-2" d="M574.86,466.42h5.66c4.26,0,7.02,2.84,7.02,7.02s-2.76,7.18-7.06,7.18h-5.62v-14.2ZM580.34,478.14c2.4,0,3.72-2.16,3.72-4.7s-1.24-4.54-3.68-4.54h-2.14v9.24h2.1Z"/>
      <path class="cls-2" d="M593.02,477.66l2.5-1.76c.74,1.46,1.98,2.44,3.86,2.44,1.36,0,2.44-.5,2.44-1.62,0-1.06-.62-1.46-2.06-1.76l-1.9-.4c-2.48-.54-3.92-1.88-3.92-4.26,0-2.6,2.12-4.22,5.54-4.22,2.52,0,4.64.92,5.64,2.82l-2.2,1.86c-.72-1.38-2.04-2.18-3.66-2.18-1.34,0-2.2.56-2.2,1.46s.56,1.38,2.06,1.72l2.06.44c2.52.56,3.88,1.76,3.88,4.2,0,2.7-2.08,4.56-5.8,4.56-3.06,0-5.26-1.3-6.24-3.3Z"/>
      <path class="cls-2" d="M606.16,473.52c0-4.58,2.74-7.44,7-7.44s7,2.86,7,7.44-2.74,7.44-7,7.44-7-2.88-7-7.44ZM616.68,473.52c0-3-1.3-4.8-3.52-4.8s-3.54,1.8-3.54,4.8,1.32,4.8,3.54,4.8,3.52-1.8,3.52-4.8Z"/>
      <path class="cls-2" d="M625.36,466.42v9.1c0,1.66.98,2.7,2.64,2.7s2.64-1.04,2.64-2.7v-9.1h3.38v9.24c0,3.24-2.24,5.3-6.02,5.3s-6.02-2.06-6.02-5.3v-9.24h3.38Z"/>
      <path class="cls-2" d="M636.74,466.42h3.74l4.56,8.1c.32.6.68,1.32.86,1.84h.04c0-.56-.02-1.14-.02-1.82v-8.12h3.1v14.2h-3.6l-4.72-8.18c-.34-.64-.66-1.22-.84-1.74h-.04c0,.58.02,1.18.02,1.88v8.04h-3.1v-14.2Z"/>
      <path class="cls-2" d="M651.98,466.42h5.66c4.26,0,7.02,2.84,7.02,7.02s-2.76,7.18-7.06,7.18h-5.62v-14.2ZM657.46,478.14c2.4,0,3.72-2.16,3.72-4.7s-1.24-4.54-3.68-4.54h-2.14v9.24h2.1Z"/>
      <path class="cls-2" d="M683.06,470.88c0,2.82-1.98,4.58-5.18,4.58h-2.84v5.16h-3.38v-14.2h6.3c3.08,0,5.1,1.76,5.1,4.46ZM679.52,470.98c0-1.34-.86-2.12-2.38-2.12h-2.1v4.24h2.1c1.5,0,2.38-.78,2.38-2.12Z"/>
      <path class="cls-2" d="M690.22,475.18h-2.04v5.44h-3.38v-14.2h6.24c3.6,0,5.2,1.76,5.2,4.36,0,1.78-.94,3.28-2.78,3.9l3.14,5.94h-3.66l-2.72-5.44ZM688.18,472.86h2.18c1.64,0,2.36-.8,2.36-2.08s-.7-1.98-2.36-1.98h-2.18v4.06Z"/>
      <path class="cls-2" d="M697.42,473.52c0-4.58,2.74-7.44,7-7.44s7,2.86,7,7.44-2.74,7.44-7,7.44-7-2.88-7-7.44ZM707.94,473.52c0-3-1.3-4.8-3.52-4.8s-3.54,1.8-3.54,4.8,1.32,4.8,3.54,4.8,3.52-1.8,3.52-4.8Z"/>
      <path class="cls-2" d="M713.48,466.42h5.66c4.26,0,7.02,2.84,7.02,7.02s-2.76,7.18-7.06,7.18h-5.62v-14.2ZM718.96,478.14c2.4,0,3.72-2.16,3.72-4.7s-1.24-4.54-3.68-4.54h-2.14v9.24h2.1Z"/>
      <path class="cls-2" d="M731.36,466.42v9.1c0,1.66.98,2.7,2.64,2.7s2.64-1.04,2.64-2.7v-9.1h3.38v9.24c0,3.24-2.24,5.3-6.02,5.3s-6.02-2.06-6.02-5.3v-9.24h3.38Z"/>
      <path class="cls-2" d="M741.9,473.54c0-4.48,2.64-7.46,6.96-7.46,3.62,0,5.9,2,6.28,5.1l-3.42.6c-.2-1.88-1.24-2.98-2.94-2.98-2.16,0-3.42,1.82-3.42,4.72s1.28,4.7,3.52,4.7c1.58,0,2.64-1.08,2.92-2.92l3.42.74c-.68,3-2.88,4.92-6.4,4.92-4.5,0-6.92-2.94-6.92-7.42Z"/>
      <path class="cls-2" d="M767.14,469.1h-4.14v11.52h-3.36v-11.52h-4.12v-2.68h11.62v2.68Z"/>
      <path class="cls-2" d="M766.92,477.66l2.5-1.76c.74,1.46,1.98,2.44,3.86,2.44,1.36,0,2.44-.5,2.44-1.62,0-1.06-.62-1.46-2.06-1.76l-1.9-.4c-2.48-.54-3.92-1.88-3.92-4.26,0-2.6,2.12-4.22,5.54-4.22,2.52,0,4.64.92,5.64,2.82l-2.2,1.86c-.72-1.38-2.04-2.18-3.66-2.18-1.34,0-2.2.56-2.2,1.46s.56,1.38,2.06,1.72l2.06.44c2.52.56,3.88,1.76,3.88,4.2,0,2.7-2.08,4.56-5.8,4.56-3.06,0-5.26-1.3-6.24-3.3Z"/>
    </g>
  </g>
  <g id="animation">
    <g id"reel-1">
    <ellipse class="cls-1" cx="694.05" cy="315.5" rx="81.79" ry="81.51"/>
    <path class="cls-2" d="M694.05,242.93c-40.08,0-72.57,32.49-72.57,72.57s32.49,72.57,72.57,72.57,72.57-32.49,72.57-72.57-32.49-72.57-72.57-72.57ZM674.3,304.1c-1.43,2.48-2.34,5.12-2.76,7.79-.41,2.55-2.94,4.15-5.31,3.11l-24.78-10.86c-1.72-.75-2.7-2.67-2.17-4.47,1.25-4.34,3.05-8.59,5.4-12.68,2.36-4.08,5.15-7.76,8.27-11.02,1.3-1.35,3.44-1.46,4.96-.35l21.79,16.03c2.08,1.53,1.97,4.53-.04,6.15-2.1,1.7-3.93,3.81-5.36,6.29ZM707.73,370.86c-4.38,1.08-8.96,1.66-13.68,1.66s-9.3-.58-13.68-1.66c-1.82-.45-2.99-2.25-2.78-4.12l2.99-26.89c.29-2.57,2.94-3.97,5.35-3.04,2.52.97,5.26,1.5,8.13,1.5s5.6-.53,8.13-1.5c2.41-.92,5.06.48,5.35,3.04l2.99,26.89c.21,1.87-.96,3.67-2.78,4.12ZM746.65,304.14l-24.78,10.86c-2.37,1.04-4.91-.56-5.31-3.11-.42-2.67-1.33-5.31-2.76-7.79-1.43-2.48-3.26-4.59-5.36-6.29-2.01-1.63-2.12-4.62-.04-6.15l21.79-16.03c1.51-1.11,3.66-1,4.96.35,3.13,3.25,5.92,6.93,8.28,11.02,2.36,4.08,4.15,8.34,5.4,12.68.52,1.8-.45,3.72-2.17,4.47Z"/>
      <animateTransform attributeName="transform" begin="0s" type="rotate" dur="7s" from="0 694.05 315.5" to="-360 694.05 315.5" repeatCount="indefinite"/>
    </g>
    <g id"reel-2">
    <ellipse class="cls-1" cx="898.26" cy="315.5" rx="81.79" ry="81.51" transform="translate(175.9 935.67) rotate(-60)"/>
    <path class="cls-2" d="M835.42,279.22c-20.04,34.71-8.15,79.09,26.56,99.13,34.71,20.04,79.09,8.15,99.13-26.56,20.04-34.71,8.15-79.09-26.56-99.13-34.71-20.04-79.09-8.15-99.13,26.56ZM878.51,326.9c1.43,2.48,3.26,4.59,5.36,6.29,2.01,1.63,2.12,4.62.04,6.15l-21.79,16.03c-1.51,1.11-3.66,1-4.96-.35-3.13-3.25-5.92-6.93-8.27-11.02-2.36-4.08-4.15-8.34-5.4-12.67-.52-1.8.45-3.72,2.17-4.47l24.78-10.86c2.37-1.04,4.91.56,5.31,3.11.42,2.67,1.33,5.31,2.76,7.79ZM953.04,331.33c-1.25,4.34-3.05,8.59-5.4,12.68-2.36,4.08-5.15,7.76-8.28,11.02-1.3,1.35-3.44,1.46-4.96.35l-21.79-16.03c-2.08-1.53-1.97-4.53.04-6.15,2.1-1.7,3.93-3.81,5.36-6.29s2.34-5.12,2.76-7.79c.41-2.55,2.94-4.15,5.31-3.11l24.78,10.86c1.72.75,2.7,2.67,2.17,4.47ZM914.73,264.26l-2.99,26.89c-.29,2.57-2.94,3.97-5.35,3.04-2.52-.97-5.26-1.5-8.13-1.5-2.86,0-5.6.53-8.13,1.5-2.41.93-5.06-.48-5.35-3.04l-2.99-26.89c-.21-1.87.96-3.67,2.78-4.12,4.38-1.08,8.96-1.66,13.68-1.66,4.72,0,9.3.58,13.68,1.66,1.82.45,2.99,2.25,2.78,4.12Z"/>
      <animateTransform attributeName="transform" begin="0s" type="rotate" dur="9s" from="0 898.265 315.505" to="-360 898.265 315.505" repeatCount="indefinite"/>
    </g>
</g>
</svg>