<?xml version="1.0" encoding="UTF-8"?>
<svg xmlns="http://www.w3.org/2000/svg" viewBox="0 0 1201 631">
  <defs>
    <style>
      .cls-1 {
        fill: var(--shadelight);
      }

      .cls-2 {
        fill: var(--ink);
      }

      .cls-3 {
        fill: var(--accent);
      }

      .cls-4 {
        fill: var(--shademid);
      }

      .cls-5 {
        fill: var(--background);
      }
    </style>
  </defs>
  </g>
  <g id="background">
    <ellipse class="cls-2" cx="220.48" cy="315.5" rx="168.36" ry="257"/>
    <path class="cls-2" d="M220.48,573c-45.14,0-87.57-26.81-119.47-75.5-31.85-48.62-49.39-113.26-49.39-182s17.54-133.38,49.39-182c31.89-48.69,74.32-75.5,119.47-75.5s87.57,26.81,119.47,75.5c31.85,48.62,49.39,113.26,49.39,182s-17.54,133.38-49.39,182c-31.89,48.69-74.32,75.5-119.47,75.5ZM220.48,59c-92.56,0-167.86,115.07-167.86,256.5s75.3,256.5,167.86,256.5,167.86-115.07,167.86-256.5S313.04,59,220.48,59Z"/>
    <ellipse class="cls-4" cx="283.79" cy="315.5" rx="145.12" ry="257"/>
    <path class="cls-2" d="M283.79,573c-38.95,0-75.55-26.82-103.05-75.53-27.45-48.62-42.57-113.24-42.57-181.97s15.12-133.36,42.57-181.97c27.5-48.71,64.1-75.53,103.05-75.53s75.55,26.82,103.05,75.53c27.45,48.61,42.57,113.24,42.57,181.97s-15.12,133.36-42.57,181.97c-27.5,48.7-64.1,75.53-103.05,75.53ZM283.79,59c-79.74,0-144.62,115.07-144.62,256.5s64.88,256.5,144.62,256.5,144.62-115.07,144.62-256.5S363.54,59,283.79,59Z"/>
    <ellipse class="cls-4" cx="347.11" cy="315.5" rx="121.88" ry="257"/>
    <path class="cls-2" d="M347.11,573c-32.76,0-63.53-26.83-86.64-75.56-23.05-48.61-35.75-113.22-35.75-181.94s12.69-133.33,35.75-181.94c23.11-48.73,53.88-75.56,86.64-75.56s63.53,26.83,86.64,75.56c23.05,48.61,35.75,113.22,35.75,181.94s-12.69,133.33-35.75,181.94c-23.11,48.73-53.88,75.56-86.64,75.56ZM347.11,59c-66.93,0-121.38,115.07-121.38,256.5s54.45,256.5,121.38,256.5,121.38-115.07,121.38-256.5S414.04,59,347.11,59Z"/>
    <ellipse class="cls-1" cx="410.42" cy="315.5" rx="98.64" ry="257"/>
    <path class="cls-2" d="M410.42,573c-26.57,0-51.51-26.85-70.22-75.59-18.65-48.6-28.93-113.2-28.93-181.91s10.27-133.31,28.93-181.91c18.71-48.75,43.65-75.59,70.22-75.59s51.51,26.85,70.22,75.59c18.65,48.6,28.92,113.2,28.92,181.91s-10.27,133.31-28.92,181.91c-18.71,48.75-43.65,75.59-70.22,75.59ZM410.42,59c-54.12,0-98.14,115.07-98.14,256.5s44.03,256.5,98.14,256.5,98.14-115.07,98.14-256.5S464.54,59,410.42,59Z"/>
    <ellipse class="cls-1" cx="473.74" cy="315.5" rx="75.4" ry="257"/>
    <path class="cls-2" d="M473.74,573c-20.38,0-39.49-26.86-53.8-75.63-14.25-48.58-22.11-113.17-22.11-181.87s7.85-133.28,22.11-181.87c14.31-48.77,33.42-75.63,53.8-75.63s39.49,26.86,53.8,75.63c14.25,48.59,22.11,113.17,22.11,181.87s-7.85,133.28-22.11,181.87c-14.31,48.77-33.42,75.63-53.8,75.63ZM473.74,59c-41.3,0-74.9,115.07-74.9,256.5s33.6,256.5,74.9,256.5,74.9-115.07,74.9-256.5-33.6-256.5-74.9-256.5Z"/>
    <ellipse class="cls-5" cx="537.05" cy="315.5" rx="52.17" ry="257"/>
    <path class="cls-2" d="M537.05,573c-14.2,0-27.47-26.88-37.38-75.67-9.86-48.57-15.29-113.15-15.29-181.83s5.43-133.25,15.29-181.83c9.91-48.8,23.18-75.67,37.38-75.67s27.47,26.88,37.38,75.67c9.86,48.57,15.29,113.15,15.29,181.83s-5.43,133.25-15.29,181.83c-9.91,48.8-23.18,75.67-37.38,75.67ZM537.05,59c-28.49,0-51.67,115.07-51.67,256.5s23.18,256.5,51.67,256.5,51.67-115.07,51.67-256.5-23.18-256.5-51.67-256.5Z"/>
    <ellipse class="cls-2" cx="980.02" cy="315.5" rx="168.36" ry="257"/>
    <path class="cls-2" d="M980.02,573c-45.14,0-87.57-26.81-119.47-75.5-31.85-48.62-49.39-113.26-49.39-182s17.54-133.38,49.39-182c31.89-48.69,74.32-75.5,119.47-75.5s87.57,26.81,119.47,75.5c31.85,48.62,49.39,113.26,49.39,182s-17.54,133.38-49.39,182c-31.89,48.69-74.32,75.5-119.47,75.5ZM980.02,59c-92.56,0-167.86,115.07-167.86,256.5s75.3,256.5,167.86,256.5,167.86-115.07,167.86-256.5-75.3-256.5-167.86-256.5Z"/>
    <ellipse class="cls-4" cx="916.71" cy="315.5" rx="145.12" ry="257"/>
    <path class="cls-2" d="M916.71,573c-38.95,0-75.55-26.82-103.05-75.53-27.45-48.62-42.57-113.24-42.57-181.97s15.12-133.36,42.57-181.97c27.5-48.71,64.1-75.53,103.05-75.53s75.55,26.82,103.05,75.53c27.45,48.61,42.57,113.24,42.57,181.97s-15.12,133.36-42.57,181.97c-27.5,48.7-64.1,75.53-103.05,75.53ZM916.71,59c-79.74,0-144.62,115.07-144.62,256.5s64.88,256.5,144.62,256.5,144.62-115.07,144.62-256.5S996.45,59,916.71,59Z"/>
    <ellipse class="cls-4" cx="853.39" cy="315.5" rx="121.88" ry="257"/>
    <path class="cls-2" d="M853.39,573c-32.76,0-63.53-26.83-86.64-75.56-23.05-48.61-35.75-113.22-35.75-181.94s12.7-133.33,35.75-181.94c23.11-48.73,53.88-75.56,86.64-75.56s63.53,26.83,86.64,75.56c23.05,48.61,35.75,113.22,35.75,181.94s-12.7,133.33-35.75,181.94c-23.11,48.73-53.88,75.56-86.64,75.56ZM853.39,59c-66.93,0-121.38,115.07-121.38,256.5s54.45,256.5,121.38,256.5,121.38-115.07,121.38-256.5-54.45-256.5-121.38-256.5Z"/>
    <ellipse class="cls-1" cx="790.08" cy="315.5" rx="98.64" ry="257"/>
    <path class="cls-2" d="M790.08,573c-26.57,0-51.51-26.85-70.22-75.59-18.65-48.6-28.92-113.2-28.92-181.91s10.27-133.31,28.92-181.91c18.71-48.75,43.65-75.59,70.22-75.59s51.51,26.85,70.22,75.59c18.65,48.6,28.92,113.2,28.92,181.91s-10.27,133.31-28.92,181.91c-18.71,48.75-43.65,75.59-70.22,75.59ZM790.08,59c-54.12,0-98.14,115.07-98.14,256.5s44.03,256.5,98.14,256.5,98.14-115.07,98.14-256.5-44.03-256.5-98.14-256.5Z"/>
    <ellipse class="cls-1" cx="726.76" cy="315.5" rx="75.4" ry="257"/>
    <path class="cls-2" d="M726.76,573c-20.38,0-39.49-26.86-53.8-75.63-14.25-48.58-22.11-113.17-22.11-181.87s7.85-133.28,22.11-181.87c14.31-48.77,33.42-75.63,53.8-75.63s39.49,26.86,53.8,75.63c14.25,48.59,22.11,113.17,22.11,181.87s-7.85,133.28-22.11,181.87c-14.31,48.77-33.42,75.63-53.8,75.63ZM726.76,59c-41.3,0-74.9,115.07-74.9,256.5s33.6,256.5,74.9,256.5,74.9-115.07,74.9-256.5-33.6-256.5-74.9-256.5Z"/>
    <ellipse class="cls-5" cx="663.45" cy="315.5" rx="52.17" ry="257"/>
    <path class="cls-2" d="M663.45,573c-14.2,0-27.47-26.88-37.38-75.67-9.86-48.57-15.29-113.15-15.29-181.83s5.43-133.25,15.29-181.83c9.91-48.8,23.18-75.67,37.38-75.67s27.47,26.88,37.38,75.67c9.86,48.57,15.29,113.15,15.29,181.83s-5.43,133.25-15.29,181.83c-9.91,48.8-23.18,75.67-37.38,75.67ZM663.45,59c-28.49,0-51.67,115.07-51.67,256.5s23.18,256.5,51.67,256.5,51.67-115.07,51.67-256.5-23.18-256.5-51.67-256.5Z"/>
    <path class="cls-2" d="M601.46,132.6c-.01-23.16-.03-41.81-.04-54.67,0-6.43-.02-11.41-.03-14.79,0-1.75,0-3-.03-3.9,0-.09,0-.16,0-.18h0s0-.03,0-.04c0-.55,0-.87.01-.95h-.07c-.11-1.06-.36-1.06-.93-1.06s-.81,0-.93,1.06h-.07c0,.08,0,.41.01.96,0,.01,0,.03,0,.04h0s0,.09,0,.19c-.03.89-.03,2.15-.03,3.9,0,3.38-.02,8.36-.03,14.79-.02,12.86-.03,31.51-.04,54.67-.02,46.33-.04,110.7-.04,182.9s.02,136.57.04,182.9c.01,23.16.03,41.81.04,54.67,0,6.43.02,11.41.03,14.79,0,1.75,0,3,.03,3.9,0,.09,0,.16,0,.18h0s0,.03,0,.04c0,.55,0,.87-.01.96h.07c.11,1.06.36,1.06.93,1.06s.81,0,.93-1.06h.07c0-.08,0-.41-.01-.96,0-.01,0-.03,0-.04h0s0-.09,0-.18c.03-.89.03-2.15.03-3.9,0-3.38.02-8.36.03-14.79.02-12.86.03-31.51.04-54.67.02-46.33.04-110.7.04-182.9s-.02-136.57-.04-182.9Z"/>
    <path class="cls-3" d="M425.8,569.38c-1.57,3.94-3.09,7.91-4.6,11.88-1.86,4.85-5.4,8.32-9.3,11.59-6.23,5.22-13.36,8.54-21.32,9.74-3.96.6-8.1.35-12.13.1-8.12-.52-16.18-1.57-23.47-5.54-3.54-1.93-7.04-3.92-10.08-6.72-5.47-5.05-8.36-11.53-10.68-18.31-2.61-7.65-4.97-15.41-7.25-23.18-2.42-8.21-3.17-16.63-2.46-25.19,1.33-16.18,3.66-32.25,8.22-47.82,4.5-15.38,10.42-30.25,18.3-44.29,8.11-14.46,16.23-28.91,24.33-43.39,5.48-9.78,9.61-20.17,13.3-30.75.75-2.15,1.09-4.5,1.31-6.78.19-2.14-.78-3.39-2.9-3.58-3.24-.3-6.54-.44-9.8-.31-10.11.4-18.97-2.68-26.89-8.84-6.33-4.93-9.55-11.49-10.52-19.28-.26-2.1-.51-4.24-.39-6.35.42-7.5,1.24-14.9,3.34-22.23,4.63-16.2,12.93-30.45,22.2-44.27,3.33-4.96,6.39-10.09,9.72-15.05,5.25-7.86,10.71-15.58,15.91-23.46,9.05-13.74,19.66-26.23,30.16-38.83,4.82-5.79,9.3-11.83,12.83-18.52.89-1.68,2.1-3.24,1.87-5.49-1.67-.84-2.98.12-4.05,1.07-3.66,3.25-8.06,5.27-12.2,7.73-5.28,3.16-10.95,3.4-16.76,1.6-6.13-1.88-9.08-6.36-9.59-12.42-.23-2.82.19-5.79.79-8.59,1.51-7.07,4.89-13.36,8.79-19.4,6.5-10.04,12.75-20.24,19.5-30.1,6.09-8.91,12.73-17.44,19.16-26.13,1.14-1.55,2.39-3.02,3.56-4.56,4.83-6.25,9.49-12.65,14.54-18.71,1.76-2.1,3.3-4.14,3.9-6.63,3.01-1.18,3.9,1.38,5.63,2.33.1,3.33-.96,6.19-2.1,9.07-1.98,5.03-4.2,9.98-5.62,15.17-2.12,7.84-3.25,15.8-1.19,23.96.6,2.35.38,4.98.18,7.47-.27,3.61,1.19,6.86,2.38,9.99.98,2.59,3.9,4.41,6.81,4.92,6.38,1.11,11.82,4.65,17.9,6.51,4.89,1.49,8.28,4.61,10.02,9.61,1.15,3.3,2.29,6.52,2.63,10.02.7,6.75.74,13.44-1,20.09-.95,3.54-1.67,7.14-2.32,10.73-1.23,6.98-4.09,13.16-8.29,18.86-8.57,11.63-17.35,23.13-24.81,35.55-3.6,6-8.35,11.02-13.46,15.77-2.25,2.08-4.2,4.49-6.17,6.87-4.31,5.19-8.24,10.73-12.85,15.63-5.13,5.45-8.75,11.74-11.81,18.41-2.08,4.55-3.8,9.28-5.54,13.99-.51,1.39-.52,2.97-.72,4.47-.1.77.06,1.6-.21,2.29-1.92,4.97-.5,9.94.02,14.87.46,4.39,2.47,8.09,5.97,10.88,1.52,1.2,3,2.45,4.61,3.5,2.99,1.99,6.38,3.25,9.88,2.41,6.68-1.57,13.42-.83,20.14-1.32,2.28-.16,4.58-.41,7.77-.7,1.61,1.71,3.42,3.43,5.02,5.34,2.71,3.23,4.04,6.97,3.55,11.25-.79,6.89-1.22,13.82-2.41,20.65-1.69,9.87-3.89,19.66-5.94,29.48-.4,1.86-1.09,3.69-1.8,5.47-2.5,6.25-4.98,12.52-7.62,18.73-2.8,6.6-6.69,12.6-10.57,18.59-2.1,3.21-4.18,6.46-6.09,9.79-5.64,9.95-10.14,20.36-13.23,31.39-1.19,4.26-2.5,8.5-3.48,12.82-1.58,6.81-1.94,13.71-.72,20.67.43,2.46.36,4.99.59,7.49.76,8.29,2.25,16.46,4.53,24.44,1.75,6.16,2.74,12.39,2.95,18.78.04,1.52.52,3.01.76,4.53.56,3.48.57,6.89-.74,10.24Z"/>
    <path class="cls-3" d="M1026.3,186.86c-2.06,1.53-4.55,2.11-7.24,2.6-7.76,1.42-15.44,3.36-23.15,5.08-1.89.43-3.79.77-5.66,1.23-10.5,2.57-21.07,4.88-31.44,7.83-11.5,3.26-22.83,7.1-34.25,10.67-6.86,2.15-13.48,4.82-19.17,9.29-2.26,1.77-4.48,3.78-6.11,6.1-3.48,4.98-4.07,10.31-.57,15.68,3.31,5.11,7.82,8.54,13.9,9.49,4.75.75,9.43,2.01,14.32,1.86,1.44-.05,3.05.05,3.8,1.77-1.26,1.87-3.19,2.3-4.95,3.02-7,2.88-14.3,4.66-21.71,6.03-16.13,2.97-32.27,5.79-48.02,10.56-9.04,2.73-18.18,5.17-27.23,7.86-5.73,1.68-11.37,3.67-17.1,5.35-15.97,4.69-31.46,10.34-45.39,19.83-6.31,4.29-11.67,9.45-16.79,14.95-1.44,1.54-2.61,3.35-3.76,5.13-4.24,6.61-5.96,13.71-4.24,21.55,2.15,9.8,6.99,17.84,15.02,24,2.59,1.99,5.03,4.21,7.34,6.51,1.51,1.51,1.47,3.08-.06,4.61-1.63,1.62-3.39,3.21-5.34,4.38-9.6,5.78-19.42,11.12-29.89,15.14-15.49,5.96-30.97,11.87-46.46,17.8-15.03,5.75-29.1,13.4-42.4,22.34-13.46,9.06-25.54,19.92-36.91,31.51-4.87,4.96-8.94,10.48-12.12,16.56-6.71,4.17-14.05,6.9-21.91,8.09-6.11.92-11.28-1.09-15.38-6.1-2.37-2.88-2.84-6.23-3.69-9.52-.98-3.86-.4-7.53,1.91-10.91,3.5-5.17,7.85-9.49,12.69-13.37,4.24-3.4,8.72-6.61,12.51-10.47,5.83-5.95,11.28-12.31,16.7-18.66,1.72-2.04,3.17-4.5,4.07-7.01,1.78-4.94,2.97-10.06,4.64-15.05,2.27-6.77,3.7-13.62,2.65-20.82-.24-1.61-.23-3.27-.14-4.89.17-3.67-.44-7.24-1.3-10.77-.23-.88-.47-1.75-.67-2.64-1.42-7.02-.8-13.74,3.05-19.93,1.71-2.77,3.42-5.55,5.36-8.17,1.73-2.3,3.46-4.77,5.7-6.5,4.75-3.61,9.66-7.11,14.83-10.1,8.68-5.03,18.29-8,27.82-10.93,14.79-4.55,29.34-9.65,42.98-17.05,4.61-2.51,9.15-5.19,13.76-7.75,4.82-2.67,8.99-6.17,12.92-9.95,6.6-6.35,11.02-13.98,11.93-23.22.6-6.15.36-12.37-.97-18.41-2.19-9.91-2.03-19.83-.68-29.78.34-2.48,1.15-4.95,1.95-7.34,3.01-8.95,8.43-16.48,14.66-23.36,5.22-5.8,11-11.07,17.18-15.88,12.6-9.82,24.99-19.91,36.18-31.36,7.59-7.78,15.7-15.17,19.29-25.93,3.04-4.74,5.62-9.68,6.78-15.26,3.9-7,5.5-14.99,9.58-21.91.61-1.05.84-2.37,1.09-3.59.31-1.59.37-3.25.73-4.82.27-1.25-.16-2.12-1-2.9-1.08-1.01-2.33-1-3.51-.28-1.86,1.14-3.94,2.1-5.38,3.65-2.53,2.74-5.59,4.61-8.61,6.61-1.96,1.29-3.95,2.58-5.81,4.02-5.91,4.53-11.72,9.19-17.66,13.66-2.45,1.86-5.07,3.53-7.73,5.04-12.49,7.08-24.78,14.45-36.49,22.76-8,5.67-16.36,10.82-24.55,16.21-3.18,2.09-6.46,4.08-9.49,6.37-9.39,7.14-18.77,14.32-28,21.66-6.39,5.08-12.63,10.37-18.76,15.76-5.19,4.55-10.16,9.42-14.18,15.02-4.88,6.78-9.27,13.89-13.7,20.96-1.93,3.07-3.19,6.49-3.9,10.1-1.11,5.63.47,10.41,4.2,14.57,2.83,3.17,6.26,5.51,10.08,7.31,2.96,1.39,5.95,2.71,8.94,4.07,2.83,1.31,5.36,3.06,7.61,5.22,2.39,2.28,2.95,4.97,1.51,7.93-2.03,4.2-4.92,7.66-9.32,9.5-4.34,1.81-8.72,3.58-13.18,5.02-4.5,1.45-9.09,2.6-13.69,3.68-9.37,2.19-18.68,4.59-27.8,7.73-10.69,3.67-20.96,8.21-30.71,13.93-4.06,2.39-7.96,5.04-11.96,7.56-12.6,7.95-23.15,18.07-31.78,30.18-3.57,5.03-7.14,10.08-10.8,15.04-5.01,6.81-8.69,14.23-11.16,22.31-.65,2.17-.64,4.21-.18,6.42,1.12,5.51,4.32,9.51,8.73,12.69,1.91,1.39,3.88,2.72,5.95,3.85,3.89,2.13,6.95,5.23,10.19,8.15,1.28,1.15,2.01,2.54,2.45,4.16.84,3.1.58,6.09-.75,9.02-2.43,5.37-5.71,10.18-10.12,14.04-5.88,5.14-11.91,10.1-18.02,14.94-9.6,7.64-18.4,15.99-24.45,26.8-2.65,4.74-4.77,9.78-7.14,14.68-4.44,9.15-6.39,18.88-6.47,29-.04,4.54.65,9.02,2.31,13.33,2.3,5.92,6.85,9.66,11.95,12.99,4.07,2.65,8.62,3.78,13.24,4.84,7.27,1.66,14.57,3.21,22.09,2.84,10.73-.49,21.35-1.85,31.69-4.76,4.85-1.36,9.74-2.64,14.28-4.88.01.1.02.19.03.29.55,4.1,1.96,7.86,3.45,11.61,3.07,7.71,8.59,13.68,14.5,19.27,2.94,2.78,5.96,5.61,9.39,7.68,6.89,4.17,14.49,6.18,22.62,6.15,5.08-.02,10.02-.42,14.56-2.96,3.7-2.09,7.4-4.16,11.13-6.19,3.16-1.73,5.33-4.37,7.12-7.4.79-1.33,1.38-2.78,2.31-3.97,3.92-5.05,7.16-10.47,9.74-16.33,3.35-7.59,7.44-14.83,12.16-21.69,1.42-2.06,3.09-3.96,4.33-6.13,3.51-6.12,8.2-11.2,13.77-15.43,3.52-2.69,7.24-5.11,10.88-7.63,9.42-6.51,19.55-11.63,30.25-15.67,3.6-1.34,7.28-2.51,10.94-3.64,6.81-2.13,13.64-4.25,20.01-7.53,6-3.08,11.92-6.31,17.84-9.52,1.69-.91,3.39-1.88,4.88-3.05,7.86-6.23,15.81-12.35,23.42-18.87,5.27-4.49,10.05-9.54,15.05-14.33,3.11-2.98,4.49-6.71,4.47-10.92,0-2.48-.3-4.96-.44-7.31-2.64-1.82-4.57-3.1-6.42-4.43-5.48-3.91-10.19-8.8-16.32-11.86-3.22-1.59-5.02-4.73-6.05-8.17-.56-1.84-.9-3.75-1.3-5.64-.91-4.39-.09-8.51,2.37-12.18,2.75-4.12,4.85-8.85,9.5-11.44.64-.36,1.05-1.1,1.62-1.63,1.11-1.03,2.13-2.23,3.41-2.98,4.35-2.51,8.7-5.05,13.2-7.21,6.61-3.17,13.42-5.69,20.85-6.6,6.68-.82,13.25-2.56,19.88-3.79,3.04-.58,6.07-1.18,9.14-1.34,6.97-.39,13.83-1.21,20.43-3.52,13.68-4.78,27.79-8,41.81-11.46,6.87-1.7,13.03-4.62,18.43-9.2,2.8-2.35,5.66-4.65,8.65-6.77,5.59-4,9.84-9.16,13.62-14.8,1.97-2.91,3.17-6.11,4.39-9.39,1.87-4.96,1.25-9.52-1.55-13.79-3.49-5.32-5.41-11.52-9.6-16.45-1.91-2.25-2.99-5.52-2.08-8.14,1.08-3.16,2.05-6.6,4.56-9.2,1.74-1.79,3.6-3.67,4.64-5.86,3.63-7.59,9.59-12.99,16.24-17.66,4.41-3.08,9.29-5.47,14.02-8.06,2.72-1.48,5.36-3,7.42-5.63-.72-1.84.23-4.37-2.84-5.39Z"/>
    <path class="cls-3" d="M275.88,103.6c-.04,5.19-.74,10.39-1.19,15.57-.92,10.58-2.54,21.1-3.18,31.7-.48,7.99-.35,15.95-.86,23.93-.05,1-.11,2-.27,2.98-2.21,13.12-3.04,26.3-4.35,39.47-.71,6.99-1.14,13.98-1.38,20.97-.14,4.18.29,8.37.57,12.54.05.94.59,1.83.95,2.87,4.57.26,8.68-1.12,12.85-2.15,2.5-.6,5.05-1.23,7.61-1.46,2.65-.24,3.97,1.07,4.13,3.49.58,8.78.05,17.46-2.38,26.18-2.34,8.37-4.48,16.8-5.68,25.39-.91,6.55-2.52,13.07-3.66,19.6-.51,2.9-1.33,5.88,0,9.01,2.34-.91,4.42-1.85,6.59-2.51,2.05-.64,4.27-.81,6.28-1.51,3.27-1.14,6.39-2.64,9.64-3.81,5.43-1.96,6.99-.97,6.02,4.1-1.49,7.9-3.05,15.83-5.09,23.65-1.37,5.26-3.73,10.32-5.46,15.5-2,5.97-3.76,12.01-5.66,18.01-1.23,3.87-2.39,7.75-3.76,11.58-3.53,9.87-5.23,19.92-5.59,30.2-.23,6.19-.85,12.37-1.55,18.54-.39,3.35-2.82,5.84-5.41,8.13-6.62,5.83-14.6,7.17-22.98,5.98-4.41-.62-8.7-2.08-12.84-3.63-6.07-2.25-10.29-6.83-14.89-10.86-2.05-1.79-2.88-4.23-3.26-6.92-1.47-10.92-1.6-21.86-.35-32.89.89-7.77,1.31-15.58,1.92-23.38.06-.78-.15-1.55-.28-2.78-1.23.03-1.89-.09-2.49.06-5.37,1.28-9.63-.71-13.78-3.36-1.97-1.23-3.05-2.75-2.93-4.9.17-3,.32-6.02.9-8.96,1.74-9.11,3.68-18.18,5.53-27.28,2.71-13.23,5.45-26.46,8.05-39.72.9-4.54,1.43-9.15,2.05-13.71.14-1.15-.04-2.34-.04-3.41-2.51-.91-4.56.24-6.57.78-4.24,1.11-7.61.08-10.74-2.38-3.78-2.95-5.94-6.48-5.46-11.36.87-8.99,1.97-17.95,4.02-26.83,1.3-5.7,2.48-11.44,3.99-17.1,1.44-5.48,3.03-10.93,4.96-16.29,1.22-3.39,1.98-6.56.19-9.22,3.3-10.53,6.44-20.6,9.62-30.67,3.11-9.88,6-19.81,9.44-29.59,4-11.34,8.6-22.46,15.67-32.67,4.37-6.31,10.43-9.49,18.03-11.06,8.38-1.74,13.13,4.55,13.08,10.21Z"/>
    <path class="cls-3" d="M658.43,51.5c-1.33,2.75-3.01,5.33-4.56,7.97-3.16,5.39-6.67,10.56-9.68,16.03-2.27,4.12-4.21,8.38-6.49,12.49-.28.52-.56,1.03-.89,1.52-4.48,6.41-8.25,13.2-12.26,19.86-2.14,3.53-4.13,7.14-6.02,10.78-1.13,2.18-1.96,4.52-2.86,6.8-.21.51-.15,1.12-.22,1.77,2.36,1.29,4.89,1.59,7.36,2.1,1.48.31,2.99.62,4.41,1.15,1.47.54,1.84,1.57,1.31,2.89-1.91,4.81-4.38,9.29-7.86,13.3-3.35,3.86-6.61,7.79-9.42,12.05-2.14,3.25-4.63,6.3-6.88,9.49-1,1.41-2.19,2.78-2.27,4.78,1.47.11,2.81.13,4.13.33,1.25.18,2.47.65,3.72.78,2.03.22,4.06.21,6.08.41,3.38.33,3.96,1.25,2.16,3.7-2.79,3.82-5.61,7.64-8.66,11.27-2.06,2.45-4.58,4.54-6.81,6.85-2.57,2.67-5.03,5.43-7.55,8.13-1.63,1.74-3.23,3.51-4.92,5.2-4.36,4.35-7.8,9.26-10.58,14.62-1.68,3.23-3.57,6.35-5.5,9.45-1.05,1.68-2.97,2.39-4.92,2.95-4.99,1.43-9.56.12-13.71-2.62-2.18-1.44-4.09-3.3-5.9-5.17-2.65-2.73-3.74-6.22-5.17-9.52-.64-1.47-.47-2.97.02-4.5,1.98-6.17,4.66-12.01,8.11-17.55,2.43-3.9,4.63-7.94,6.92-11.93.23-.4.31-.86.55-1.55-.66-.3-.98-.52-1.33-.6-3.18-.67-4.93-2.81-6.47-5.26-.73-1.15-.93-2.23-.32-3.34.85-1.55,1.69-3.11,2.74-4.53,3.22-4.4,6.54-8.72,9.81-13.09,4.77-6.34,9.56-12.68,14.29-19.06,1.62-2.19,3.07-4.5,4.54-6.77.37-.58.57-1.25.84-1.82-1.1-1.11-2.48-1.02-3.68-1.24-2.53-.48-4.06-1.88-5.1-3.97-1.26-2.52-1.52-4.94-.04-7.41,2.73-4.55,5.57-9.03,8.9-13.24,2.13-2.7,4.2-5.45,6.43-8.08,2.14-2.54,4.37-5.04,6.74-7.4,1.5-1.49,2.71-2.98,2.43-4.85,4.41-4.76,8.61-9.32,12.84-13.86,4.14-4.46,8.18-9.01,12.47-13.33,4.98-5.02,10.23-9.76,16.56-13.4,3.91-2.25,7.93-2.41,12.36-1.33,4.89,1.19,5.82,5.73,4.37,8.72Z"/>
    <path class="cls-3" d="M1082.2,336.2c-3.04,2.34-5.79,5.08-8.63,7.65-5.82,5.27-11.28,10.92-17.24,16.03-4.49,3.85-9.23,7.33-13.7,11.19-.57.47-1.13.96-1.63,1.49-6.74,7.16-14.12,13.53-21.29,20.19-3.8,3.54-7.72,6.91-11.72,10.18-2.4,1.95-5.06,3.57-7.64,5.26-.58.39-1.34.47-2.12.73-2.2-2.57-3.21-5.61-4.47-8.52-.76-1.74-1.53-3.52-2.54-5.13-1.04-1.67-2.4-1.86-3.9-.88-5.43,3.58-10.3,7.77-14.35,13.09-3.88,5.11-7.89,10.14-12.41,14.68-3.45,3.46-6.57,7.32-9.9,10.91-1.48,1.59-2.86,3.41-5.3,4.02-.51-1.78-.89-3.42-1.46-5-.54-1.49-1.43-2.87-1.92-4.37-.79-2.44-1.3-4.94-2.06-7.38-1.27-4.07-2.55-4.55-5.1-1.71-3.98,4.41-7.96,8.87-11.65,13.55-2.48,3.16-4.41,6.81-6.68,10.13-2.62,3.84-5.39,7.58-8.07,11.37-1.73,2.45-3.49,4.87-5.14,7.39-4.23,6.49-9.39,11.98-15.28,16.78-3.54,2.9-6.9,6.03-10.22,9.19-1.79,1.73-2.18,4.27-2.37,6.81-.48,6.5,2.3,11.8,6.74,16.2,2.33,2.32,5.11,4.19,7.87,5.94,4.04,2.57,8.61,3.01,13.04,3.91,1.97.41,3.78-.19,5.53-1.17,7.08-4.02,13.58-8.82,19.51-14.48,4.18-4,8.58-7.73,12.9-11.57.43-.38.98-.61,1.76-1.08.54.74.9,1.07,1.08,1.49,1.64,3.73,4.72,5.35,8.13,6.61,1.6.61,2.98.57,4.19-.46,1.69-1.44,3.4-2.88,4.88-4.53,4.59-5.09,9.05-10.29,13.58-15.44,6.58-7.5,13.14-15.02,19.78-22.48,2.27-2.56,4.74-4.93,7.16-7.33.61-.6,1.39-1.02,2.03-1.5,1.65,1.07,1.89,2.79,2.48,4.21,1.24,2.99,3.35,4.51,6.2,5.26,3.42.91,6.47.6,9.13-1.86,4.9-4.53,9.68-9.18,14-14.35,2.78-3.31,5.63-6.57,8.29-9.98,2.58-3.29,5.08-6.67,7.38-10.19,1.45-2.23,2.98-4.1,5.34-4.23,4.72-6.65,9.25-12.99,13.75-19.36,4.43-6.24,8.98-12.38,13.2-18.77,4.89-7.42,9.38-15.09,12.24-23.81,1.76-5.39.93-10.37-1.54-15.55-2.72-5.71-8.54-5.7-11.85-3.14Z"/>
  </g>
  <g id="logo">
    <path class="cls-5" d="M1173.74,281.38c0,55.45-37.38,91.66-95.58,93.03v65.02h-100.3v-21.24c-22.12,16.39-49.74,25.31-79.41,25.31-35.25,0-67.66-12.56-91.31-35.35-3.94-3.77-7.55-7.84-10.89-12.09-3.36,4.25-6.97,8.31-10.89,12.09-23.65,22.79-56.09,35.35-91.33,35.35-27.86,0-53.94-7.88-75.34-22.43v18.36H184.27v-8.37c-12.98,5.43-28.23,8.37-45.29,8.37H28.59v-247.87h107.69c18.49,0,34.7,3.61,47.99,10.27v-10.27h433.07v19.25c21.64-15.13,48.25-23.32,76.69-23.32,35.25,0,67.68,12.54,91.33,35.36,3.92,3.77,7.53,7.84,10.89,12.09,3.34-4.25,6.95-8.31,10.89-12.09,23.65-22.81,56.07-35.36,91.31-35.36,29.67,0,57.29,8.92,79.41,25.31v-21.24h96.86c38.09,0,60.72,13.89,72.99,25.55,17.05,16.19,26.04,38.4,26.04,64.27Z"/>
    <path class="cls-2" d="M898.45,445.5c-35.75,0-68.67-12.75-92.7-35.91-3.24-3.1-6.43-6.57-9.5-10.33-3.09,3.77-6.27,7.23-9.5,10.34-24.03,23.16-56.96,35.91-92.72,35.91-26.78,0-52.05-7.15-73.34-20.72v14.65c0,1.1-.9,2-2,2H184.27c-1.1,0-2-.9-2-2v-5.41c-12.85,4.92-27.39,7.41-43.29,7.41H28.59c-1.1,0-2-.9-2-2v-247.87c0-1.1.9-2,2-2h107.69c17.28,0,32.73,3.06,45.99,9.09v-7.09c0-1.1.9-2,2-2h433.07c1.1,0,2,.9,2,2v15.49c21.54-14.11,47.27-21.55,74.69-21.55,35.78,0,68.71,12.75,92.72,35.92,3.22,3.1,6.41,6.57,9.49,10.33,3.07-3.76,6.26-7.23,9.51-10.34,24.01-23.16,56.93-35.91,92.7-35.91,28.65,0,55.32,8.08,77.41,23.41v-17.35c0-1.1.9-2,2-2h96.86c38.75,0,61.83,14.19,74.37,26.1,17.44,16.56,26.66,39.29,26.66,65.72,0,55.71-37.45,92.81-95.58,94.97v63.08c0,1.1-.9,2-2,2h-100.3c-1.1,0-2-.9-2-2v-17.35c-22.09,15.33-48.76,23.41-77.41,23.41ZM796.25,394.06h0c.61,0,1.19.28,1.57.76,3.43,4.37,7.03,8.37,10.7,11.88,23.29,22.44,55.22,34.8,89.93,34.8,29.18,0,56.22-8.62,78.22-24.92.61-.45,1.42-.52,2.09-.18.67.34,1.1,1.03,1.1,1.79v19.24h96.3v-63.02c0-1.09.87-1.97,1.95-2,56.88-1.34,93.63-37.07,93.63-91.03,0-25.31-8.79-47.03-25.42-62.82-12.01-11.4-34.18-25-71.61-25h-94.86v19.24c0,.76-.43,1.45-1.1,1.79-.67.34-1.48.27-2.09-.18-21.99-16.3-49.04-24.92-78.22-24.92-34.73,0-66.66,12.36-89.92,34.79-3.67,3.52-7.27,7.51-10.7,11.88-.38.48-.96.76-1.57.76h0c-.61,0-1.19-.28-1.57-.76-3.46-4.38-7.06-8.38-10.7-11.89-23.26-22.44-55.21-34.8-89.95-34.8-27.94,0-54.06,7.94-75.54,22.96-.61.43-1.41.48-2.07.13-.66-.34-1.08-1.03-1.08-1.77v-17.25H186.27v8.27c0,.69-.36,1.34-.95,1.7-.59.37-1.33.4-1.95.09-13.32-6.67-29.17-10.05-47.1-10.05H30.59v243.87h108.39c16.52,0,31.5-2.76,44.52-8.21.62-.26,1.32-.19,1.88.18.56.37.89,1,.89,1.67v6.37h430.42v-16.36c0-.74.41-1.42,1.06-1.77.65-.35,1.45-.3,2.06.11,21.25,14.45,46.92,22.08,74.22,22.08,34.72,0,66.66-12.36,89.94-34.79,3.64-3.51,7.24-7.5,10.7-11.89.38-.48.96-.76,1.57-.76Z"/>
    <g>
      <path class="cls-2" d="M203.43,356.93c0,38.99-30.32,53.34-64.44,53.34H57.76v-189.53h78.52c33.3,0,58.48,14.08,58.48,47.11,0,21.93-10.29,35.47-30.05,41.97v.54c21.39,3.52,38.72,15.16,38.72,46.57ZM99.73,258.91v37.09h31.41c12.73,0,21.39-7.04,21.39-18.95s-8.93-18.14-21.12-18.14h-31.68ZM159.84,351.51c0-13.81-10.29-20.58-27.35-20.58h-32.76v41.16h33.03c15.97,0,27.08-6.77,27.08-20.58Z"/>
      <path class="cls-2" d="M255.41,370.73h75.54v39.53h-117.51v-189.53h41.97v150Z"/>
      <path class="cls-2" d="M459.56,371.01v39.26h-118.59v-189.53h117.24v39.26h-75.27v29.78h67.69v38.18h-67.69v43.05h76.62Z"/>
      <path class="cls-2" d="M589.52,371.01v39.26h-118.59v-189.53h117.24v39.26h-75.27v29.78h67.69v38.18h-67.69v43.05h76.62Z"/>
      <path class="cls-2" d="M793.94,315.5c0,59.3-43.59,98.83-99.91,98.83s-99.91-39.53-99.91-98.83,43.59-98.83,99.91-98.83,99.91,39.53,99.91,98.83ZM640.42,315.5c0,34.12,23.28,55.51,53.61,55.51s53.61-21.39,53.61-55.51-23.28-55.51-53.61-55.51-53.61,21.39-53.61,55.51Z"/>
      <path class="cls-2" d="M998.36,315.5c0,59.3-43.59,98.83-99.91,98.83s-99.91-39.53-99.91-98.83,43.59-98.83,99.91-98.83,99.91,39.53,99.91,98.83ZM844.84,315.5c0,34.12,23.28,55.51,53.61,55.51s53.61-21.39,53.61-55.51-23.28-55.51-53.61-55.51-53.61,21.39-53.61,55.51Z"/>
      <path class="cls-2" d="M1144.57,281.38c0,37.09-21.93,63.9-69.86,63.9h-25.72v64.98h-41.97v-189.53h67.69c47.92,0,69.86,26.53,69.86,60.65ZM1099.9,282.2c0-16.52-11.37-23.29-28.7-23.29h-22.2v48.47h22.2c17.33,0,28.7-8.39,28.7-25.18Z"/>
    </g>
    <rect class="cls-2" x="398.5" y="456.02" width="404" height="35" rx="17.5" ry="17.5"/>
    <g>
      <path class="cls-5" d="M426.38,468.98v3.28h5.98v2.52h-5.98v5.84h-3.38v-14.2h9.72v2.56h-6.34Z"/>
      <path class="cls-5" d="M434.74,480.62v-14.2h3.38v14.2h-3.38Z"/>
      <path class="cls-5" d="M441.08,466.42h3.74l4.56,8.1c.32.6.68,1.32.86,1.84h.04c0-.56-.02-1.14-.02-1.82v-8.12h3.1v14.2h-3.6l-4.72-8.18c-.34-.64-.66-1.22-.84-1.74h-.04c0,.58.02,1.18.02,1.88v8.04h-3.1v-14.2Z"/>
      <path class="cls-5" d="M466.18,478.12v2.5h-9.86v-14.2h9.72v2.5h-6.34v3.2h6v2.48h-6v3.52h6.48Z"/>
      <path class="cls-5" d="M468.64,466.42h3.38v11.46h5.76v2.74h-9.14v-14.2Z"/>
      <path class="cls-5" d="M480.66,475.48l-4.72-9.06h3.56l2.5,5.24c.16.36.28.72.34,1.04h.04c.06-.32.18-.68.34-1.04l2.48-5.24h3.58l-4.72,9.06v5.14h-3.4v-5.14Z"/>
      <path class="cls-5" d="M494.24,473.54c0-4.48,2.64-7.46,6.96-7.46,3.62,0,5.9,2,6.28,5.1l-3.42.6c-.2-1.88-1.24-2.98-2.94-2.98-2.16,0-3.42,1.82-3.42,4.72s1.28,4.7,3.52,4.7c1.58,0,2.64-1.08,2.92-2.92l3.42.74c-.68,3-2.88,4.92-6.4,4.92-4.5,0-6.92-2.94-6.92-7.42Z"/>
      <path class="cls-5" d="M514.9,475.18h-2.04v5.44h-3.38v-14.2h6.24c3.6,0,5.2,1.76,5.2,4.36,0,1.78-.94,3.28-2.78,3.9l3.14,5.94h-3.66l-2.72-5.44ZM512.86,472.86h2.18c1.64,0,2.36-.8,2.36-2.08s-.7-1.98-2.36-1.98h-2.18v4.06Z"/>
      <path class="cls-5" d="M532.04,477.3h-5.24l-1.08,3.32h-3.38l5.16-14.2h3.86l5.16,14.2h-3.4l-1.08-3.32ZM531.26,474.92l-1.3-3.96c-.2-.62-.38-1.16-.52-2h-.04c-.14.84-.32,1.38-.52,2l-1.3,3.96h3.68Z"/>
      <path class="cls-5" d="M541.64,468.98v3.28h5.98v2.52h-5.98v5.84h-3.38v-14.2h9.72v2.56h-6.34Z"/>
      <path class="cls-5" d="M560.94,469.1h-4.14v11.52h-3.36v-11.52h-4.12v-2.68h11.62v2.68Z"/>
      <path class="cls-5" d="M572.4,478.12v2.5h-9.86v-14.2h9.72v2.5h-6.34v3.2h6v2.48h-6v3.52h6.48Z"/>
      <path class="cls-5" d="M574.86,466.42h5.66c4.26,0,7.02,2.84,7.02,7.02s-2.76,7.18-7.06,7.18h-5.62v-14.2ZM580.34,478.14c2.4,0,3.72-2.16,3.72-4.7s-1.24-4.54-3.68-4.54h-2.14v9.24h2.1Z"/>
      <path class="cls-5" d="M593.02,477.66l2.5-1.76c.74,1.46,1.98,2.44,3.86,2.44,1.36,0,2.44-.5,2.44-1.62,0-1.06-.62-1.46-2.06-1.76l-1.9-.4c-2.48-.54-3.92-1.88-3.92-4.26,0-2.6,2.12-4.22,5.54-4.22,2.52,0,4.64.92,5.64,2.82l-2.2,1.86c-.72-1.38-2.04-2.18-3.66-2.18-1.34,0-2.2.56-2.2,1.46s.56,1.38,2.06,1.72l2.06.44c2.52.56,3.88,1.76,3.88,4.2,0,2.7-2.08,4.56-5.8,4.56-3.06,0-5.26-1.3-6.24-3.3Z"/>
      <path class="cls-5" d="M606.16,473.52c0-4.58,2.74-7.44,7-7.44s7,2.86,7,7.44-2.74,7.44-7,7.44-7-2.88-7-7.44ZM616.68,473.52c0-3-1.3-4.8-3.52-4.8s-3.54,1.8-3.54,4.8,1.32,4.8,3.54,4.8,3.52-1.8,3.52-4.8Z"/>
      <path class="cls-5" d="M625.36,466.42v9.1c0,1.66.98,2.7,2.64,2.7s2.64-1.04,2.64-2.7v-9.1h3.38v9.24c0,3.24-2.24,5.3-6.02,5.3s-6.02-2.06-6.02-5.3v-9.24h3.38Z"/>
      <path class="cls-5" d="M636.74,466.42h3.74l4.56,8.1c.32.6.68,1.32.86,1.84h.04c0-.56-.02-1.14-.02-1.82v-8.12h3.1v14.2h-3.6l-4.72-8.18c-.34-.64-.66-1.22-.84-1.74h-.04c0,.58.02,1.18.02,1.88v8.04h-3.1v-14.2Z"/>
      <path class="cls-5" d="M651.98,466.42h5.66c4.26,0,7.02,2.84,7.02,7.02s-2.76,7.18-7.06,7.18h-5.62v-14.2ZM657.46,478.14c2.4,0,3.72-2.16,3.72-4.7s-1.24-4.54-3.68-4.54h-2.14v9.24h2.1Z"/>
      <path class="cls-5" d="M683.06,470.88c0,2.82-1.98,4.58-5.18,4.58h-2.84v5.16h-3.38v-14.2h6.3c3.08,0,5.1,1.76,5.1,4.46ZM679.52,470.98c0-1.34-.86-2.12-2.38-2.12h-2.1v4.24h2.1c1.5,0,2.38-.78,2.38-2.12Z"/>
      <path class="cls-5" d="M690.22,475.18h-2.04v5.44h-3.38v-14.2h6.24c3.6,0,5.2,1.76,5.2,4.36,0,1.78-.94,3.28-2.78,3.9l3.14,5.94h-3.66l-2.72-5.44ZM688.18,472.86h2.18c1.64,0,2.36-.8,2.36-2.08s-.7-1.98-2.36-1.98h-2.18v4.06Z"/>
      <path class="cls-5" d="M697.42,473.52c0-4.58,2.74-7.44,7-7.44s7,2.86,7,7.44-2.74,7.44-7,7.44-7-2.88-7-7.44ZM707.94,473.52c0-3-1.3-4.8-3.52-4.8s-3.54,1.8-3.54,4.8,1.32,4.8,3.54,4.8,3.52-1.8,3.52-4.8Z"/>
      <path class="cls-5" d="M713.48,466.42h5.66c4.26,0,7.02,2.84,7.02,7.02s-2.76,7.18-7.06,7.18h-5.62v-14.2ZM718.96,478.14c2.4,0,3.72-2.16,3.72-4.7s-1.24-4.54-3.68-4.54h-2.14v9.24h2.1Z"/>
      <path class="cls-5" d="M731.36,466.42v9.1c0,1.66.98,2.7,2.64,2.7s2.64-1.04,2.64-2.7v-9.1h3.38v9.24c0,3.24-2.24,5.3-6.02,5.3s-6.02-2.06-6.02-5.3v-9.24h3.38Z"/>
      <path class="cls-5" d="M741.9,473.54c0-4.48,2.64-7.46,6.96-7.46,3.62,0,5.9,2,6.28,5.1l-3.42.6c-.2-1.88-1.24-2.98-2.94-2.98-2.16,0-3.42,1.82-3.42,4.72s1.28,4.7,3.52,4.7c1.58,0,2.64-1.08,2.92-2.92l3.42.74c-.68,3-2.88,4.92-6.4,4.92-4.5,0-6.92-2.94-6.92-7.42Z"/>
      <path class="cls-5" d="M767.14,469.1h-4.14v11.52h-3.36v-11.52h-4.12v-2.68h11.62v2.68Z"/>
      <path class="cls-5" d="M766.92,477.66l2.5-1.76c.74,1.46,1.98,2.44,3.86,2.44,1.36,0,2.44-.5,2.44-1.62,0-1.06-.62-1.46-2.06-1.76l-1.9-.4c-2.48-.54-3.92-1.88-3.92-4.26,0-2.6,2.12-4.22,5.54-4.22,2.52,0,4.64.92,5.64,2.82l-2.2,1.86c-.72-1.38-2.04-2.18-3.66-2.18-1.34,0-2.2.56-2.2,1.46s.56,1.38,2.06,1.72l2.06.44c2.52.56,3.88,1.76,3.88,4.2,0,2.7-2.08,4.56-5.8,4.56-3.06,0-5.26-1.3-6.24-3.3Z"/>
    </g>
  </g>
  <g id="animation">
    <g id"reel-1">
    <ellipse class="cls-2" cx="694.05" cy="315.5" rx="81.79" ry="81.51"/>
    <path class="cls-5" d="M694.05,242.93c-40.08,0-72.57,32.49-72.57,72.57s32.49,72.57,72.57,72.57,72.57-32.49,72.57-72.57-32.49-72.57-72.57-72.57ZM674.3,304.1c-1.43,2.48-2.34,5.12-2.76,7.79-.41,2.55-2.94,4.15-5.31,3.11l-24.78-10.86c-1.72-.75-2.7-2.67-2.17-4.47,1.25-4.34,3.05-8.59,5.4-12.68,2.36-4.08,5.15-7.76,8.27-11.02,1.3-1.35,3.44-1.46,4.96-.35l21.79,16.03c2.08,1.53,1.97,4.53-.04,6.15-2.1,1.7-3.93,3.81-5.36,6.29ZM707.73,370.86c-4.38,1.08-8.96,1.66-13.68,1.66s-9.3-.58-13.68-1.66c-1.82-.45-2.99-2.25-2.78-4.12l2.99-26.89c.29-2.57,2.94-3.97,5.35-3.04,2.52.97,5.26,1.5,8.13,1.5s5.6-.53,8.13-1.5c2.41-.92,5.06.48,5.35,3.04l2.99,26.89c.21,1.87-.96,3.67-2.78,4.12ZM746.65,304.14l-24.78,10.86c-2.37,1.04-4.91-.56-5.31-3.11-.42-2.67-1.33-5.31-2.76-7.79-1.43-2.48-3.26-4.59-5.36-6.29-2.01-1.63-2.12-4.62-.04-6.15l21.79-16.03c1.51-1.11,3.66-1,4.96.35,3.13,3.25,5.92,6.93,8.28,11.02,2.36,4.08,4.15,8.34,5.4,12.68.52,1.8-.45,3.72-2.17,4.47Z"/>
      <animateTransform attributeName="transform" begin="0s" type="rotate" dur="7s" from="0 694.05 315.5" to="-360 694.05 315.5" repeatCount="indefinite"/>
    </g>
    <g id"reel-2">
    <ellipse class="cls-2" cx="898.26" cy="315.5" rx="81.79" ry="81.51" transform="translate(175.9 935.67) rotate(-60)"/>
    <path class="cls-5" d="M835.42,279.22c-20.04,34.71-8.15,79.09,26.56,99.13,34.71,20.04,79.09,8.15,99.13-26.56,20.04-34.71,8.15-79.09-26.56-99.13-34.71-20.04-79.09-8.15-99.13,26.56ZM878.51,326.9c1.43,2.48,3.26,4.59,5.36,6.29,2.01,1.63,2.12,4.62.04,6.15l-21.79,16.03c-1.51,1.11-3.66,1-4.96-.35-3.13-3.25-5.92-6.93-8.27-11.02-2.36-4.08-4.15-8.34-5.4-12.67-.52-1.8.45-3.72,2.17-4.47l24.78-10.86c2.37-1.04,4.91.56,5.31,3.11.42,2.67,1.33,5.31,2.76,7.79ZM953.04,331.33c-1.25,4.34-3.05,8.59-5.4,12.68-2.36,4.08-5.15,7.76-8.28,11.02-1.3,1.35-3.44,1.46-4.96.35l-21.79-16.03c-2.08-1.53-1.97-4.53.04-6.15,2.1-1.7,3.93-3.81,5.36-6.29s2.34-5.12,2.76-7.79c.41-2.55,2.94-4.15,5.31-3.11l24.78,10.86c1.72.75,2.7,2.67,2.17,4.47ZM914.73,264.26l-2.99,26.89c-.29,2.57-2.94,3.97-5.35,3.04-2.52-.97-5.26-1.5-8.13-1.5-2.86,0-5.6.53-8.13,1.5-2.41.93-5.06-.48-5.35-3.04l-2.99-26.89c-.21-1.87.96-3.67,2.78-4.12,4.38-1.08,8.96-1.66,13.68-1.66,4.72,0,9.3.58,13.68,1.66,1.82.45,2.99,2.25,2.78,4.12Z"/>
      <animateTransform attributeName="transform" begin="0s" type="rotate" dur="9s" from="0 898.265 315.505" to="-360 898.265 315.505" repeatCount="indefinite"/>
    </g>
  </g>
</svg>